<?xml version="1.0" encoding="utf-8"?><!-- Uploaded to: SVG Repo, www.svgrepo.com, Generator: SVG Repo Mixer Tools -->
<svg width="8px" height="8px" viewBox="0 0 400 400" fill="none" xmlns="http://www.w3.org/2000/svg">
<path d="M196.831 63C197.359 154.557 206.807 245.867 206.807 337.36" stroke="#000000" stroke-opacity="0.9" stroke-width="16" stroke-linecap="round" stroke-linejoin="round"/>
<path d="M173 100C178.737 102.116 183.793 104.533 190 106" stroke="#000000" stroke-opacity="0.9" stroke-width="16" stroke-linecap="round" stroke-linejoin="round"/>
<path d="M219.776 99.9138C213.292 103.852 206.331 107.142 198.825 109.891" stroke="#000000" stroke-opacity="0.9" stroke-width="16" stroke-linecap="round" stroke-linejoin="round"/>
<path d="M162.907 130.842C174.035 132.274 183.662 135.291 192.837 138.823" stroke="#000000" stroke-opacity="0.9" stroke-width="16" stroke-linecap="round" stroke-linejoin="round"/>
<path d="M225.762 127.849C217.194 132.698 207.062 134.745 198.825 139.821" stroke="#000000" stroke-opacity="0.9" stroke-width="16" stroke-linecap="round" stroke-linejoin="round"/>
<path d="M160.91 165.76C171.723 168.126 184.929 168.974 196.826 169.751" stroke="#000000" stroke-opacity="0.9" stroke-width="16" stroke-linecap="round" stroke-linejoin="round"/>
<path d="M207.803 172.744C219.393 170.685 230.272 166.829 240.726 162.767" stroke="#000000" stroke-opacity="0.9" stroke-width="16" stroke-linecap="round" stroke-linejoin="round"/>
<path d="M145.946 194.693C150.272 197.409 155.164 198.201 160.75 199.23C172.022 201.298 193.927 210.595 205.173 208.298C216.735 205.937 259.908 197.286 247.479 197.286" stroke="#000000" stroke-opacity="0.9" stroke-width="16" stroke-linecap="round" stroke-linejoin="round"/>
<path d="M139.961 226.034C178.017 247.11 235.263 238.163 260.679 224.623" stroke="#000000" stroke-opacity="0.9" stroke-width="16" stroke-linecap="round" stroke-linejoin="round"/>
<path d="M144.951 263.782C184.758 279.508 219.833 276.952 254.695 262.535" stroke="#000000" stroke-opacity="0.9" stroke-width="16" stroke-linecap="round" stroke-linejoin="round"/>
</svg>