<?xml version="1.0" encoding="utf-8"?><!-- Uploaded to: SVG Repo, www.svgrepo.com, Generator: SVG Repo Mixer Tools -->
<svg width="8px" height="8px" viewBox="-20 0 190 190" fill="none" xmlns="http://www.w3.org/2000/svg">
<path fill-rule="evenodd" clip-rule="evenodd" d="M76.54 149.16C14.75 149.16 17.54 60.8701 75.54 60.8701C133.34 60.8701 133 149.16 76.54 149.16ZM75.48 66.8001C72.6891 66.7949 69.9038 67.0493 67.16 67.5601L68.22 73.6301L55.52 82.6301L44.37 81.9401C43.2722 83.477 42.2928 85.0949 41.44 86.7801L43.78 108.67L50.66 117.51L43.6 127.51C49.89 136.72 60.73 143.23 76.33 143.23C98.79 143.23 110.98 127.07 112.75 109.62L107.48 104.83L99.75 101.89L98.49 103.8L101.49 106.95L103.81 107.3L104.81 110.66L97.51 114.35L92.51 105.64L90.78 109.56L94.55 117.85L99.18 119.2L91.72 123.2L82 137.14L73.74 137.79L71.93 129.79L73.3 118L63.83 115.48L60.71 108L62.2 100.8L71.2 97.1101L79.71 101.98L84.2 100.51L90.89 102.32L92.41 93.7901L83.8 90.9401L83.7 96.5001L78.23 96.2501L77.76 90.3701L71 91.8601L71.51 86.6901L68.63 83.3501L73.01 79.3501L80.13 83.3501L82.36 78.6201L88 76.2201L91.76 77.8801L95.58 77.1101L97.23 73.1101C91.5 69.1701 84.27 66.8001 75.48 66.8001Z" fill="#000000"/>
</svg>