<?xml version="1.0" encoding="utf-8"?>

<!DOCTYPE svg PUBLIC "-//W3C//DTD SVG 1.1//EN" "http://www.w3.org/Graphics/SVG/1.1/DTD/svg11.dtd">
<!-- Uploaded to: SVG Repo, www.svgrepo.com, Generator: SVG Repo Mixer Tools -->
<svg fill="#000000" version="1.1" id="Layer_1" xmlns="http://www.w3.org/2000/svg" xmlns:xlink="http://www.w3.org/1999/xlink" 
	 width="8px" height="8px" viewBox="0 0 72 72" enable-background="new 0 0 72 72" xml:space="preserve">
<g>
	<path d="M57.473,42.533c0-5.891-6.195-18.732-12.889-31.731c-0.48-0.937-0.902-1.752-1.242-2.422
		c-2.582-5.089-5.769-5.849-7.44-5.849c-2.897,0-5.535,2.08-7.429,5.857c-0.3,0.598-0.668,1.323-1.089,2.151
		C20.707,23.691,14.527,36.67,14.527,42.531c0,11.294,8.77,20.559,19.854,21.392v3.548c0,1.104,0.896,2,2,2c1.104,0,2-0.896,2-2
		v-3.605C49.104,62.676,57.473,53.567,57.473,42.533z M37.381,59.936v-5.844l7.291-7.292c0.391-0.391,0.391-1.022,0-1.413
		c-0.391-0.392-1.023-0.392-1.414,0l-5.877,5.877V31.841l5.604-5.604c0.391-0.391,0.391-1.023,0-1.414
		c-0.392-0.391-1.023-0.391-1.414,0l-4.189,4.189v-2.543c0-0.553-0.447-1-1-1s-1,0.447-1,1v4.543l-0.061,0.061
		c-0.391,0.391-0.391,1.023,0,1.414c0.018,0.018,0.042,0.024,0.061,0.041v10.72l-5.224-5.225c-0.391-0.392-1.023-0.392-1.414,0
		c-0.391,0.391-0.391,1.022,0,1.414l6.55,6.551c0.026,0.026,0.06,0.036,0.088,0.059v7.217l-0.061,0.061
		c-0.391,0.391-0.391,1.023,0,1.414c0.018,0.018,0.042,0.024,0.061,0.041v5.195c-9.348-0.329-16.855-8.016-16.855-17.441
		c0-5.713,9.027-23.491,12.424-30.182c0.424-0.835,0.795-1.566,1.099-2.17c1.146-2.286,2.586-3.65,3.853-3.65
		c1.284,0,2.694,1.333,3.874,3.659c0.343,0.675,0.768,1.5,1.252,2.443c3.724,7.231,12.445,24.166,12.445,29.9
		C53.473,51.701,46.369,59.228,37.381,59.936z"/>
	<path d="M36.381,21.469c-0.553,0-1,0.447-1,1v1c0,0.553,0.447,1,1,1s1-0.447,1-1v-1C37.381,21.916,36.934,21.469,36.381,21.469z"/>
	<path d="M26.749,36.019c-0.19,0.19-0.3,0.45-0.3,0.709c0,0.271,0.11,0.53,0.29,0.711c0.19,0.189,0.45,0.289,0.71,0.289
		c0.271,0,0.521-0.1,0.71-0.289c0.181-0.189,0.29-0.439,0.29-0.711c0-0.259-0.1-0.519-0.29-0.7
		C27.789,35.659,27.109,35.659,26.749,36.019z"/>
</g>
</svg>